/* XPM */
static char *_03ebe39e1b84058a9b07fa49bdb386bHn4mQyoWa91zQZz2[] = {
/* columns rows colors chars-per-pixel */
"64 64 256 2 ",
"   c #020103",
".  c #0B0105",
"X  c #04010B",
"o  c #0B020C",
"O  c #0C080B",
"+  c #13010B",
"@  c #19020D",
"#  c #060414",
"$  c #0B0414",
"%  c #060817",
"&  c #06061A",
"*  c #09061A",
"=  c #06081C",
"-  c #09091E",
";  c #0E0913",
":  c #120214",
">  c #1A0315",
",  c #13021A",
"<  c #1A031C",
"1  c #190A17",
"2  c #1F121C",
"3  c #240518",
"4  c #270D19",
"5  c #0C0223",
"6  c #0A0A24",
"7  c #0C0B2B",
"8  c #080527",
"9  c #140122",
"0  c #1C0223",
"q  c #13042B",
"w  c #1D032B",
"e  c #160B29",
"r  c #0D0C33",
"t  c #0C0C3B",
"y  c #060639",
"u  c #120B34",
"i  c #130C3B",
"p  c #1B0B3C",
"a  c #160536",
"s  c #16123A",
"d  c #12102B",
"f  c #250729",
"g  c #291627",
"h  c #351729",
"j  c #230432",
"k  c #290839",
"l  c #37063A",
"z  c #271239",
"x  c #361738",
"c  c #330D26",
"v  c #3B2332",
"b  c #480E35",
"n  c #442439",
"m  c #552D3F",
"M  c #0E0D44",
"N  c #0C0C4C",
"B  c #070748",
"V  c #130B43",
"C  c #130C4B",
"Z  c #1B0C4C",
"A  c #190745",
"S  c #1C1344",
"D  c #16124A",
"F  c #0C0D53",
"G  c #0A0A5B",
"H  c #180955",
"J  c #0C1158",
"K  c #181356",
"L  c #0D114B",
"P  c #260A47",
"I  c #380747",
"U  c #261549",
"Y  c #381449",
"T  c #260B57",
"R  c #390C58",
"E  c #281658",
"W  c #38185A",
"Q  c #38265B",
"!  c #33264D",
"~  c #080C67",
"^  c #0C1365",
"/  c #151568",
"(  c #0A1476",
")  c #151A77",
"_  c #0F0C67",
"`  c #291A67",
"'  c #371964",
"]  c #321A73",
"[  c #2A106B",
"{  c #1C227A",
"}  c #19226D",
"|  c #392574",
" . c #302871",
".. c #450648",
"X. c #461446",
"o. c #470A57",
"O. c #56075A",
"+. c #451755",
"@. c #58155B",
"#. c #530C4B",
"$. c #59255A",
"%. c #4F2C53",
"&. c #6A2F51",
"*. c #481966",
"=. c #591966",
"-. c #551670",
";. c #641969",
":. c #671A74",
">. c #781C79",
",. c #70136C",
"<. c #472668",
"1. c #562468",
"2. c #452876",
"3. c #503177",
"4. c #652969",
"5. c #77267A",
"6. c #793777",
"7. c #6B2F70",
"8. c #601B56",
"9. c #57476D",
"0. c #6B4672",
"q. c #67455D",
"w. c #3E4154",
"e. c #842D79",
"r. c #92257A",
"t. c #8D4C6B",
"y. c #151A87",
"u. c #141A97",
"i. c #0C158B",
"p. c #261C89",
"a. c #1B2488",
"s. c #1A2499",
"d. c #252888",
"f. c #232897",
"g. c #36389A",
"h. c #352F8C",
"j. c #161BAA",
"k. c #1C25A8",
"l. c #1A24B8",
"z. c #232BA7",
"x. c #2933AA",
"c. c #353BA8",
"v. c #2B36B6",
"b. c #363AB7",
"n. c #232BB7",
"m. c #261FA3",
"M. c #7D1D81",
"N. c #4A358D",
"B. c #7B2281",
"V. c #792881",
"C. c #7A3882",
"Z. c #473BB0",
"A. c #3944B9",
"S. c #3942A6",
"D. c #3C439D",
"F. c #4B4797",
"G. c #744E8A",
"H. c #796D96",
"J. c #4846A7",
"K. c #4647B8",
"L. c #5150B1",
"P. c #7261AF",
"I. c #363BC6",
"U. c #2B32C4",
"Y. c #1E27C0",
"T. c #423FC4",
"R. c #3B47C8",
"E. c #3C41D0",
"W. c #4649CA",
"Q. c #4953CB",
"!. c #5656CA",
"~. c #484DD2",
"^. c #5556D3",
"/. c #4F4DCB",
"(. c #625CCC",
"). c #5C62CA",
"_. c #5C64D6",
"`. c #6567CB",
"'. c #6766D5",
"]. c #7777D5",
"[. c #706BCC",
"{. c #7A78E4",
"}. c #686DE5",
"|. c #862888",
" X c #883588",
".X c #95378D",
"XX c #973999",
"oX c #8F2F8E",
"OX c #AC369A",
"+X c #B23BA4",
"@X c #884386",
"#X c #964A8C",
"$X c #964897",
"%X c #905691",
"&X c #AA5196",
"*X c #97689A",
"=X c #8A6A97",
"-X c #AD6495",
";X c #9A5AA2",
":X c #9A4CA2",
">X c #A948A5",
",X c #B648AA",
"<X c #A956A7",
"1X c #B759AA",
"2X c #B758B6",
"3X c #B056B4",
"4X c #9868A7",
"5X c #9873A9",
"6X c #B968A9",
"7X c #B868B8",
"8X c #A976B7",
"9X c #B67AB8",
"0X c #AC6CAE",
"qX c #C252B7",
"wX c #C872BB",
"eX c #C56AB1",
"rX c #BC79C6",
"tX c #AF78C2",
"yX c #867FE6",
"uX c #C77AC7",
"iX c #CB73CA",
"pX c #7C81E7",
"aX c #7E80D7",
"sX c #9988AE",
"dX c #B186BB",
"fX c #958FD2",
"gX c #BA87C9",
"hX c #B998D7",
"jX c #AD8FD0",
"kX c #B4A9D4",
"lX c #8F90EF",
"zX c #9CAEEF",
"xX c #A6A9E8",
"cX c #A7B4EC",
"vX c #B5B1ED",
"bX c #A998E4",
"nX c #C585CB",
"mX c #CC88D5",
"MX c #D389D8",
"NX c #D193D6",
"BX c #DA97E5",
"VX c #DA8DE2",
"CX c #E898EB",
"ZX c #DAA6E4",
"AX c #D4B1F0",
"SX c #E5A8EB",
"DX c #F0B2F8",
"FX c #CBA5D7",
"GX c #ABC8FC",
"HX c #BAC7F9",
"JX c #B2CBFA",
"KX c #CCC8F4",
"LX c #F9CBFE",
"PX c #FEFCFF",
"IX c #EEE9FA",
"UX c #C382B8",
/* pixels */
"# # % % # $ # % % % = % & & = = = = 6 r L ^ y.y.c.i.b.W.j.l.I.W./.^.!.`.'.].aXfXvXvXzXlX_.~.Q.Q.S.^ t 7 7 6 6 - % % % % # X # # ",
"# # # $ & $ # # # % % & & & = = = 6 7 t L ^ ) y.p.x.s.f.m.n.I./.!.!.).`.`.].aXlXzXcXlXlX_.k.v.Q.x.^ L 7 7 7 6 - % % % % # # # O ",
"% % % % % $ % % % % & % & % = 6 = 6 6 t F ( ) u.y.x.x.s.z.z.z.z.c.g.g.g.F.F.F.[.fXlXlX).!._.A.v.f.( L t 7 6 6 - - % % % # # # # ",
"% * $ % $ % $ % % % % * & % = = 6 6 7 t F / y.y.u.u.z.z.z.n.b.T.`.].].fXaX[.`.L.F.D.Z.A.S.v.k.x.i.a.L t r 7 6 - - % % % # # % O ",
"$ % $ % % $ % % % % * * % % 6 = 6 6 7 t F ( ) u.u.u.j.j.l.I.I.T.Z./.!.(.aX).`.].].).c.f.x.k.v.k.i.a.J y r 7 6 - - - % & # # % % ",
"* $ % % % % * ; % % % % = = = - 6 6 7 y J / y.u.u.j.j.j.l.U.E.E./.^.[.{.].).!.A.K.L.`.Q.x.k.k.i.k.a.J t r 7 7 6 - = % % % # $ # ",
"% % % $ $ * % % % % & & % * - - 6 6 7 t K / y.y.u.u.j.n.n.I.E.^.^.(.].yX{.(.^.Q.^.W.b.I.R.R.l.l.k.a.J y r 7 7 6 = = = % * % % # ",
"* % % % $ * * * % % & - = = = = 6 6 6 t K J / y.p.p.u.m.b.T.W./.(.{.lXlX{.'.^.~.~.~.W.I.I.U.Y.Y.k.s.J t r 7 7 6 = 6 - * * ; % # ",
"= * & & # & * * * % - * - - * - 6 6 7 r V E | ] ] ] ] p.h.Z.Z./.(.yXlXlXyX_.^.~.~.~.E.E.I.Y.Y.l.k.y.L t r 7 7 6 6 = - = % - * % ",
"6 6 * * & * * * * * * - * - = - 6 7 7 r U W P A H T R R [ [ N.Z.L.(.yXyXyX(./.T.~.T.T.E.I.l.l.l.k.i.F t r 7 6 6 6 = - = * % * * ",
"q q 6 * = & * % * * * = = 6 6 6 6 7 7 i ! r a Z ' 2.-.N.M.[ T [ h.N.L.[.[.(./.Z.Z.Z.Z.T.b.m.k.n.s.( B r r 7 7 6 6 = = = * * % $ ",
"U q q 6 - & * * % * * = = 6 6 7 d u u s S t t A E R ] -.-.*.T A H T ] N.J.J.Z.g.p.p.p.p.p.p.f.u.s.( L r 7 6 7 7 6 = - = * * - $ ",
"+.+.p e 6 * * * & & % 6 6 6 7 u u r r t s s t s A i A P W ' P C H F F H / / _ H H H T [ H H [ h.{ ^ t r 6 7 7 6 - - - = * * * % ",
"P W U e 5 * * & * & & = 6 7 u p p i i r r r r r t t A A P ' ` ` h.] _ / _ _ H C C H E ] N.] H ] ` L t 7 7 7 6 6 6 6 - - * % * * ",
"A p U u 7 6 = = = = & = 6 e w Y +.R p i r r r r i i i V P ' [ h.J.d.) h.p.h.y._ F C Z E ] ] T E E t t 7 7 6 6 6 = 6 - * * * % * ",
"C V S s 8 6 8 = & = & 6 6 u k W 1.*.P p r s r r S i p i A W ] N.J.g.c.Z.c.K.g.d.F V M C ` [ Z S S r r 7 7 7 6 6 - = 6 * * * ; * ",
"D C t S r 7 6 & = = = 6 8 u k R =.=.P p i u u i U i i a t A H E ` }  .d.Z.c.L.g.F L M t L L L t r r r 7 7 7 6 - - - - - % = % % ",
"K L t S t 7 8 = = = 6 6 7 u k R :.-.P a u r r S U Z s i r t T ` C K  .}  .^ d.} B L L L B L M L t t r r 7 7 6 6 - - % % = = % % ",
"L M M s s 7 7 6 = = - 6 d p I =.:.-.k a r r u s U S i a u u p y | H.H.H.9.} K K L L F ^ a.a.} ^ B M t r r 7 7 6 6 - - - % % = = ",
"L D M i t r 7 6 = - - q u k R -.5.*.A a r r u i U S i t r r r 8 kXPXIXIXkX! D B L J G D.A.v.v.A.g.} L t t r r 7 7 6 6 - 6 = = 6 ",
"C D i t i s 7 7 6 8 6 6 i k R 5.M.o.A M t t r r p U Z i r r 7 8 kXPXPXPXH.= M M J J ^ s.R.R.R.Q._.).S.} L r t t y 7 7 6 6 % - = ",
"D C V t M S u 7 8 6 8 7 p P o.:.B.R A K M t r r V U Z E p r r 8 w.IXPXkX8 s M L L J } ( z.R.R.R.v.A.S.S.} d.{ J B B y y y y 8 r ",
"C D C M V S p r 7 7 8 r a P *.:.-.[ ] 2.` V t r p E E E V t r 7 6 s w.d r M L L J J { ( s.x.z.S.A.A.Q.S.g.).).).D.{ ) / ^ G J B ",
"V Z C A A Z P a r q 7 r p P o.-.-.R N.|  .K t u p E E | W y r r t r 8 r M L K L J J ^ ( ( s.R.R.R.Q.S.a.Q.pXaXpXlXpX).L.c.f.a.) ",
"i S E T T ' +.P q u q p U P o.@.*.R H B V V t y i E R 2.E i i r r s V M B K E J J ^ ( a.^ ( A.R.R.A.( y.R.~.~.^.}.pXpXpX}.}.'./.",
"i V ` ' *.1.<.a q e a e p k +.1.*.*.G.2.K M t a a U ' T | T p t r s A C K ` J J ^ { d.d.} ~ u.R.R.k.( s.s.k.I.b.A.Q._.Q.Q.^.}.}.",
"t i T E *.W a 9 0 e w w w q w j k P Q  .| Q K A a Z E *.[ G.| A i r A W 2./ G G d.D.a.) ~ ~ ( z.U.s.( ) a.s.v.v.v.v.A.v.v.v.Y.n.",
"r r A W Y j , , e f 0 w w w j w w w u a A Q 2.E C A R ' R *.<.=X<.Q <.N. .H K ^ a.( a.~ { ) ~ a.x.s.G G G ( y.y.a.f.z.x.v.v.n.k.",
"r r i U e * $ < f e j j j f f f w w 9 p E Z E [ E T T R ' R R 3.F.G.G.` H K J J J ^ ^ d.J.y.~ ) d._ H 3.N. .` B y B N ^ ) ) ) } ",
"i t t U 5 , > < < f w j j j k f w f 9 q Q W E H H U A E W W <.P j P Z Z H C J J J G ) D.{ / B B F.bXAXDXDXAXAXhXG.0.U 8 B B B B ",
"D V t p e 0 X.@.X.x l l l f f f e 0 , 5 a T E Q ' E E U U P z z < f z Y S A ` { ^ d.g.a.J N A 2.AXDXNXmXVXBXBXSXLXDXAXH.p t M t ",
"Z C V q 0 l  X0XwX9X0X&X@X6.8.j 0 0 e * q p A T K T K E U q $ : h h c %.z E ` ~ a.g.( / K U 9.AXAXgXMXmXMXBXBXmXBXZXZXSXhXp 8 s ",
"[ P S 8 f @..X2X7X7X3X,X,X+X>X8.0 f 0 5 8 S K C C S U q - X O O 2 4 n b %.h ! | d./ / ` Q ! 9.5XFXNXmXVXVXVXVXBXVXCXSXmXAXhXz 7 ",
"*.*.p 9 ..e.<X2XrX7X3X,X+XOX+X Xl < f 9 8 S E E U s d # X X O h 2 + 4 @ n n ! Q K G  . .s % 1 x q.9XnXmXMXmXVXCXBXVXCXSXBX4XU u ",
":.-.w , 5.&XeX7X<X0XrX,X+X+XOX<X;.l 0 , 5 a U Z u & # X   O + n 1 . 1 + 1 g h z 5 s ! 6 X ; 1 1 n %.9X9X;XiXiXiXmXVXrXmXBXFXX.a ",
"-.+.0 f $XeXoX....b @.1X,XOX>XiX#X@.$.f q w S 7 # X         1 h 1 1 2 1 @ 4 g 4 g g % $ O O ; , 2 f $.*X:.tX3X3XiXCXDXDX;XgX5Xj ",
"O.=.f : $X1X#.#.8.6.7.|.,X>X<XiXoXO.6.7.f f , X           . 4 3 1 2 + ; @ > h g g + O # O : 1 < * 0 w +.6.V.$XCXVX<X%XNXZX8X=Xz ",
"-.:.f f eXr.#.b 5.,.e.iXiX2X7XuX5.O.@.1.k $ X X         . + > c f : g e 1 < > 4 v o o O . ; , , < f c I @.5.3XoXO.I I o.ZXdX+.w ",
"-.=.f #XqXr.,.#.e.,.r.OXrXrXuX0X@.....*X%.. O         . . 3 &.t.%X=XsXH.H.H.G.%.v 2 X O $ o o : 1 f x @.;.5.5.O.....I ..;X%X9 d ",
";.@.=.wXr.OX+Xr.oX,XOX.X7XnXmX0Xo.@.9XdX! . O     . O 1 @ &.&X6XgXhXAXHXHXHXkXdX$.< o o   g g : , f I 6.oXoX,.:.C.@XC.;X7.*XH.* ",
"R o.0XNX>X+X,X,X+X+X+X,XwXwXmX;X..9X8X*Xf X       O g @ 4 &.t.eXgXjXcXJXGXGXcXxXsXx @ @ : g g > o < X. XXXXXM.oX<XiXLXrX4.nXLX5X",
"j w 7.e.e.,XqXqX+X+XqXqX7X9XMX:.7.nX@.5Xg X       . O . 3 q.&X-XjXbXzXGXGXGXGXxXkXG.> 2 g 1 g : o : 4.$XOXXX|.M.>.-.mX$X:XrX0.5X",
"d * , j ..|.2XqX+XOX+X,X1XiX0XI <X0X4.8X1             . 3 &.&X1X8XbXxXzXGXGXJXcXvX5Xh v h > g 1 : : $.<X7X,XoXM.oX|.B.:X Xo.7.%.",
"d 8 , x ..o.O.OXqXOXoX>.e.#X@.I G.;X8X0.# # X         . @ b t.eX8XbXzXzXGXGXJXcXhXjXc h x o o 1 g : +.<X2X>XoX>.|.oXoX3X5.5.4XP ",
"d 5 $ c l l ..#.|.>.O.O.O.o...I  X8XG.k * X X     .   . + x -XUXtXfXxXzXzXGXJXcXxXhXY : 1 O X $ $ : ..#X>XXX|.M.oX|.|.-.=.-.G.I ",
"d 5 , < h X.l l o.O.o.o.o...o.k 8XZXN.A r # X       . . + c *XUXjXjXbXxXcXKXHXHXxXvX%.o o     X o : l #XXX|.B.M.|.M.>.-.M. X4XI ",
"7 6 X $ 0 l I l ..R I o.R ..I I 4XjX3.B M # X           + h %XUXgXjXjXhXjXkXAXKXvXkX0.+ .   X o + + X.#XoXM.M.B.M.B.B.B.B.:X4Xq ",
"d 7 # X : 0 j k l I R R Y Y P R -.;XN.C t #             . v n 4.0XhXtX4XG.4.G.4XtXgX=X> .   X O ; > X.@X>.M.B.B.B.B.B.M.|.BX%Xq ",
"7 6 # X $ > j P x k x j k j I R R P.3.C r #             . . . + f *XFX7.X.b $.$.=XgX*Xc . X X o : > l @Xe.r.>.B.>.M.B.B.M.3XG.a ",
"u d # # $ $ 0 f f 0 , , 9 w Y +.R C.3.C 8 X X       .   + @ . . + =XAX=X%X%X8XgX5XgX5Xx : o X o $ : k t.>XoXM.M.B.B.B.M.oX:X1.q ",
"r r 7 = $ $ $ ; $ $ . o , k o.I I <.3.p 7 X       . @ h c 4 @ . : sXHXkXfXjXvXvXvXvX5Xx f $ 6 - # > f e.1X&XoX|.B.>.B.<X@X+.a a ",
"7 7 d 7 6 X X X     X $ 9 x +.I I +.U a * X       . 4 t.t.t.m + < sXHXcXxXkXvXcXcXvX=Xx Y w s 8 # , 3 &.eXqXoX|.M.B.$X1.A a u y ",
"r 7 d 7 d % X       X , k Y R I I +.w $ o         O @ &.t.t.n @ 3 sXHXcXcXcXcXcXxXkXG.X.%.p S 7 # > < #.wXwXXX>.B.$X5.a p u u q ",
"d d 7 7 - % X     X o f Y I I k I x 9 $ X           . 3 &.&.@ . > 5XKXkXxXcXxXbXfXNX0.$.W p S 8 # , > l 1XeXoXr.M.3XC.q p u r u ",
"= = = % O X       X : z I I P k Y k > $ . X         . . @ @ . . + 9.sXfXfXbXjXjXdXwX8.0.E Z i & # : , f t.<X|.>.|.3X0X1.* 6 u u ",
"X X X X         X o 0 Y I I k l I 0 $ o o . X         . . O . . + c 0.5XhXjXtXuXwX&X7.6.S M 8 # # : , < 4.>Xe.,.+XXX:XSX8Xz 5 d ",
"X                 o f Y k k l k w , $ o o o . X               . + c dXgXhXjXrXuXeXr.&.Y u 8 # X X ; $ , #.$X,.>.>XM.>X3XLXFX9.e ",
"                  o f k k k k f > o : o . o o .                 o n 9XnXgXgXuXwX&Xe.l f * X X     ; ; : x 6.4.>.oXM.2X$XSXLXLXZX",
"                  X 0 z j w < : $ : $ o o o : o                 + q.%X*X$X%XuXwX-Xe.f $ X X       O ; : 3 4.4.O.B.|.XX>.CXDXDXSX",
"                    , 1 , , $ $ $ ; o o o : $ :               . . &.t.dX6X.XwXwX-X8.+ O X           . : > %.7.#.-.-.B.O.6XSXCXuX",
"                  X o $ : : $ + ; . o o o $ : : O               @ 3 c -XNX6X6XeX-X3 .             X   o : x 7.l 0XnXNX6X5.iXCXCX",
"            X     X o o $ $ : ; o o o $ : ; : $                 3 m &.t.eX6X-X6X&.@ .                   $ c 7.=.SXDXDXDX<X1XiXDX",
"                X X $ : : : : $ + o o : : $ ;               . @ m -XeXeXeX6X-X&.@ . .               X . < x 4X$XuXBXSXSXiX>XiXCX",
"                X . : $ : : : : o o $ : $ ; X               . @ b b r.eX-X&Xb 3 +   .   X           X O 1 l =.C.@X0XBXSXMX&XDXCX"
};
