/* XPM */
static char *e41b8de1b2a645a997ccbf119a1285b98VDBkFqqJJhgn2qA[] = {
/* columns rows colors chars-per-pixel */
"64 64 245 2 ",
"   c #010003",
".  c #0A0005",
"X  c #03020A",
"o  c #0B010A",
"O  c #03080E",
"+  c #140004",
"@  c #1A0204",
"#  c #13010C",
"$  c #1A010C",
"%  c #030412",
"&  c #0B0413",
"*  c #040A13",
"=  c #0B0A15",
"-  c #02021A",
";  c #0B041C",
":  c #040D1A",
">  c #0C0B1B",
",  c #150212",
"<  c #1B0213",
"1  c #17051B",
"2  c #0A141B",
"3  c #06131A",
"4  c #16101E",
"5  c #23000C",
"6  c #2B010B",
"7  c #240204",
"8  c #37010B",
"9  c #230313",
"0  c #290119",
"q  c #370218",
"w  c #020223",
"e  c #010D25",
"r  c #01032B",
"t  c #0A0826",
"y  c #140727",
"u  c #031324",
"i  c #0C1422",
"p  c #0D1A23",
"a  c #021A2A",
"s  c #051629",
"d  c #131123",
"f  c #141729",
"g  c #010233",
"h  c #01043B",
"j  c #080837",
"k  c #160435",
"l  c #071831",
"z  c #161639",
"x  c #350225",
"c  c #3B0223",
"v  c #39012A",
"b  c #280035",
"n  c #3C0134",
"m  c #360536",
"M  c #281939",
"N  c #3A1439",
"B  c #260A29",
"V  c #0D222E",
"C  c #082434",
"Z  c #142635",
"A  c #11232F",
"S  c #2A263C",
"D  c #43030C",
"F  c #470116",
"G  c #55001C",
"H  c #44012C",
"J  c #470327",
"K  c #550326",
"L  c #490438",
"P  c #56043C",
"I  c #56143B",
"U  c #670128",
"Y  c #720937",
"T  c #010542",
"R  c #040B47",
"E  c #1A0549",
"W  c #051649",
"Q  c #1A1D44",
"!  c #171948",
"~  c #090956",
"^  c #140C59",
"/  c #051556",
"(  c #1A1055",
")  c #240546",
"_  c #350247",
"`  c #2A1844",
"'  c #2D1455",
"]  c #032A49",
"[  c #192848",
"{  c #0B334A",
"}  c #16384B",
"|  c #062653",
" . c #19265A",
".. c #0A3352",
"X. c #1A3954",
"o. c #272647",
"O. c #242956",
"+. c #373756",
"@. c #31314D",
"#. c #081866",
"$. c #131761",
"%. c #2C1A62",
"&. c #052661",
"*. c #1B2869",
"=. c #0D386B",
"-. c #193672",
";. c #122B6E",
":. c #2A2A69",
">. c #243969",
",. c #353A7C",
"<. c #2D2E70",
"1. c #5A0945",
"2. c #491848",
"3. c #54144A",
"4. c #4A0652",
"5. c #6D1451",
"6. c #47385C",
"7. c #4C2254",
"8. c #69205D",
"9. c #782942",
"0. c #711171",
"q. c #582B76",
"w. c #48316B",
"e. c #7A2765",
"r. c #713571",
"t. c #4B1C6A",
"y. c #1B4455",
"u. c #194459",
"i. c #1A404D",
"p. c #24485C",
"a. c #3E445D",
"s. c #3A4D68",
"d. c #295164",
"f. c #33546E",
"g. c #395D6D",
"h. c #3D4572",
"j. c #3A5A73",
"k. c #29496C",
"l. c #396378",
"z. c #39636F",
"x. c #15406D",
"c. c #455779",
"v. c #4A476F",
"b. c #704976",
"n. c #446A7A",
"m. c #870B38",
"M. c #811C3E",
"N. c #890C52",
"B. c #9F245D",
"V. c #B02755",
"C. c #8B1C71",
"Z. c #892B7C",
"A. c #922E72",
"S. c #B7317B",
"D. c #AF2F68",
"F. c #B51D4E",
"G. c #C72A65",
"H. c #C7356D",
"J. c #824378",
"K. c #313487",
"L. c #50318C",
"P. c #792991",
"I. c #6F3B95",
"U. c #7A2EA4",
"Y. c #3A4C94",
"T. c #305290",
"R. c #3C609C",
"E. c #3A56AA",
"W. c #3B61AC",
"Q. c #595584",
"!. c #4B4696",
"~. c #505191",
"^. c #645885",
"/. c #655A95",
"(. c #5C7797",
"). c #4B718C",
"_. c #726788",
"`. c #686797",
"'. c #706B92",
"]. c #4753A9",
"[. c #5355A8",
"{. c #4B4FA7",
"}. c #4868B6",
"|. c #5269B9",
" X c #4A76BB",
".X c #516CAD",
"XX c #7573A4",
"oX c #6B6FB0",
"OX c #5879C7",
"+X c #4E78C5",
"@X c #6774C6",
"#X c #7E48C2",
"$X c #9B2986",
"%X c #8C328D",
"&X c #AD2E8D",
"*X c #8834A7",
"=X c #983CBB",
"-X c #9932A6",
";X c #AA28A5",
":X c #B32CAD",
">X c #C53789",
",X c #C52FB6",
"<X c #894395",
"1X c #A6438E",
"2X c #924AB9",
"3X c #8E47AB",
"4X c #8276BA",
"5X c #B931CC",
"6X c #C631C3",
"7X c #C635CC",
"8X c #9151C3",
"9X c #AC44C7",
"0X c #4B8797",
"qX c #568A99",
"wX c #5884BB",
"eX c #7889B6",
"rX c #6B95B1",
"tX c #79A5B8",
"yX c #6C929D",
"uX c #5B8ACC",
"iX c #6588CB",
"pX c #6794D1",
"aX c #6D92CB",
"sX c #7AA6C6",
"dX c #7FAFD3",
"fX c #898FB5",
"gX c #8CB2BC",
"hX c #8B90C7",
"jX c #86A8C8",
"kX c #8CB6CD",
"lX c #86A9D8",
"zX c #9CADD8",
"xX c #88B8D4",
"cX c #97BAD8",
"vX c #93AECA",
"bX c #A4BCE0",
"nX c #9AC9D7",
"mX c #9DCAD1",
"MX c #A6D7E6",
"NX c #A8D0EC",
"BX c #BCF5FE",
"VX c #B8E7F6",
"CX c #93C5EA",
"ZX c #C6F7FC",
"AX c #CAF0FE",
/* pixels */
"                                                                                                                                ",
"                                                                                                                                ",
"                                                                                                                                ",
"                                                                                                                                ",
"                                                                                                                                ",
"                                                                                                                                ",
"                                                                                                                                ",
"                                                                                                                                ",
"                                                                                                                                ",
"                                                                                                .                               ",
"                                                                                                  .   .                         ",
"            .                 O   X   X     X                                           .   .     .   .                         ",
"            .           O   O     X   . . X X X       X                             .   .   . . . . . X .   X . .               ",
"          X     X . . .   . . O . X X X X X X X X   X   X                       . .   . X . o . X o o . X . . X                 ",
"            .   X . X O . O . O X X & X X X X % X X X   X                         . X X o . o o o o X . o . o . .               ",
"          .   . . o . o o . O . o & X X o % X % % X X X   X X X             X   X X . o o o o o o o . o o . o .   .             ",
"        . X o X X o & o X o & = & > o X > % X & X X % X % X X   X     X         X O o o o o # o . o # # o #   . o . .   .       ",
"        .   X . o X o & , = & & X = & > & % ; % - & % X - X X X   X X X X O   X . o # o # , # # , # # # # o . # . o . o         ",
"        . o o o o = & = = # = > 4 % = > = % > - - - % % % % X X X % X X X X X X o o o # , # , # 1 1 < < , < , , o o o . X       ",
"      .   X o X & = 1 1 = = > d d d > ; d ; > t w - - w - % - X X X X X % X X = o & o < < # < , 0 < 9 < < < # # o o . o .   .   ",
"        X o & o . = o , , = % - - t d > w t w - w r w w - - % O X X O X X X X o o , 1 < 9 0 0 0 < 9 5 $ 9 9 $ < # o o . X   .   ",
"    . . X o % & B S S S S S @.6.+.o.o.o.o.o.` Q E O.! j ! l - d ; - i ; > d f 1 B M B N N q N v v L 2.L 1.1.L b # # o . . . .   ",
"      X o & & & v.4Xb.'._.fXfXgXfX'._././.'.`.^./.`.`.~.`.c.+.+.S o.@.@.7.+.6.v.v.b.r.b.J.r.J.Z.e.Z.%X$X$X&X1X8.< # # o . X   . ",
"  . . . X X & & +._._.b.b.c.Q.`.XXXX`.Q.^.`./.Q.[.!.~.!.!.v.:.o.o.z [ o.@.S ` 6.2.7.r.8.8.r.8.8.e.e.A.$X$X$XA.3.< # o o X . .   ",
"    . X o & & = y y t z B z z z [ Q z z ^ / ! j j R E g r r w w % w w - o X ; 1 1 0 < 0 v x c c H q J J J H v 0 # # . o . .     ",
"    . X X & & & ; y z z k ) z Q z [ [ ! ~ ~ / R R T R h h r w w r w g w % t k y y m n n q 0 c J P P L L L H 0 9 $ $ # o . . .   ",
"  .   X o & & = d w w.XX/.^.+.! o.Q R K.{.{.].K.R / R.[.$.r r r T :.<.R w r E q./.-X-X%XH c 5.A.$X;X;X;X;X5.0 @ # # # o . .   . ",
"      . X X & = 4 t w.hXoXoXQ.` [  .O.[.@X].|.K.W #.|.@X*.r j r ~ :.K.E r E I.I.*X*X-X1XH c 5.,X:X,X6X6X6XC.c 7 $ # + . .   .   ",
"    X X o & = > = t ,.hXoXhXXXO.[ O.:.[.@X@X@XY./ #.E.}.*.T g g ~ K.L.( k t.2X3X' _ H 3.c F 5.>X>XN.5.1.I J 6 0 @ + + . . .     ",
"      X X % * > d t h.vX4XhXzXv.[ O.,.hXeXoXlXT./ #.W.|.*.T g g $.L.{.( k L.8XP.b v c q q K N.>XD.U G G D 8 6 @ @ + + . .     . ",
"        O * = > i e h.zXeX(.AXrX..O.).zX.XsXVX)./ &.}.OX*.j R h ~ !.{.( g q.2X=XP.4.n H J K N.H.V.m.U U U 8 7 @ @ # . . .   .   ",
"    X X X & = = i u f.cXvXg.AXMXX.p.hXNXn.NXAX).] =.+XiX-.g h T ^ {.{.%.k ) U.8X9X-X%XL J G m.G.G.G.D.D.J.K 6 7 @ + . . . .     ",
"  X . X O o : = f e f.cXkX} mXBXl.l.MXtXy.MXZX0X| ..wXpX-.T R T #.{.{.^ T k _ t.*X=X5X-X1.G m.V.F.F.M.9.9.D 6 @ @ @ +   .       ",
"      X O O * > i e c.cXvXC yXBXrXqXBXqXy.MXBX0X] =.uXpX-.W W T #.E.E.#.T k k ) 4.0.5X7XC.K m.G.V.U D D D 7 6 @ @ + . + .       ",
"      X X % : : d u j.CXkX{ z.ZXmXMXMXl.u.MXBX0X] =.uXpX-.W ~ R K.OXOX#.g k b k b 4.:X7XA.K m.G.D.U G D 8 6 6 5 + + + .   .     ",
"    . X X * = : 2 e f.cXkX} i.mXBXBXmXy.u.MXBX0X] ..wXpXR.-.#.;.E.+XY.~ R ) %.' ) P.5X6XC.G m.D.D.Y U G K q 7 @ @ + +   . .     ",
"    X X X % * : 2 u f.cXvXp.Z yXZXZXgXi.d.VXZXqX] ..k.pXwXpXW.uXOXOX-.T h t.8X#X=X5X9X:XP K N.H.H.S.&X&XS.9.6 @ @ + +   . .     ",
"        O O * : p s X.(.(.X.} z.gXmXz.i.p.gXmXn.{ ..] x.T.R.W.W.T.&.T h j ' L.L.*XP.0.1.q F 5.B.B.B.B.A.A.I 6 @ @ . + + O       ",
"    O X O O : : i p l l Z { } } i.} i.i.y.} { { } ..] ] | / / / R h h g g g h E ) b m v q 0 F F J F F q 6 5 $ . + + .   .       ",
"      X X - * : f z Z [ [ } X.y.p.d.d.p.d.p.u.u.u.......| | W W / / ~ ~ R T j k k y b n L L L q H H H v x v v x + . + +   .     ",
"      O O O * * s.eXeXfXeXdXaXdXtXsXnXxXnXnXMXdXCXxXdXaX.XiX}.uX X+X+X}.|.].].,.<.w.r.%XA.%X$XZ.$X-X%X-X*XI.<X4.# # . . .       ",
"    X     O * * g.fXvXvXsXzXjXsXsXtXtXkXnXnXnXnXlXdXlXaXwXaX.XOX+X X X}.}.Y.Y.h.:.L.q.r.<X%XZ.%X3X=X*X2X3X3X3Xt.# o . . .       ",
"      O X O * O S s.a.v.h.j.f.j.j.f.z.n.n.z.R.z.f.k.k.k.>.>.*.*.*. . . .:.! ! ! z o.` _ 2.2.L 3.3.3.2.2.2.` S B # # . .   .     ",
"    X   X O O % O 3 O 3 e l a C C C C C C V V V l a s a u s r l e w w w w - - - - % o , # $ 9 $ 9 5 9 $ $ @ $ # o o . . .       ",
"            O * O 2 2 p p p p p A A A A A V Z V a a a u u u e e e s w w w w - - & & ; , & # < # $ < # $ , # o o o o . .         ",
"        X O X O 2 = O 2 2 2 p p p p p p p p a 3 3 a 3 3 : : e : - - - - % - % - - ; & , & & # # # < + # # + + . . . . . .       ",
"      O     X O O O O O 3 2 2 O 2 2 2 2 p 2 3 p 3 3 : : : * * : * % % % O % X X X X X & o # # # # # o o + . o o . . .           ",
"          X   X O O O O 3 O 3 2 O 2 3 3 2 2 O 3 * * * : * : % - - - * % - X % X X % o o o o # . # . # o . . .   . . .   .       ",
"          O   O O   O O O O O * 3 * * = O O O O O O O O * O % % X % X X X X X X X X X . o o o o . o . . o . . . . . . .         ",
"            O     O O O O O O O O * O 2 2 O O O O O O O O O O X X X X X X X X X X X   X . o . . . . o . . . . . X   .           ",
"    O     O   O O O     O   O X O O O O O O O O X X O O X X X X X X X X   X X X       X . X . X o . . . o . . . . .             ",
"                      O   O   O   O   O O O   O X O X   X X X X   X   X       X   X X     . . . . . . .   .   .                 ",
"                  O       X X X   O O O O O   O O     O   X   X X X                       .   .   . . .   . .                   ",
"                          O O   O           O     X O       O       X       X               .                                   ",
"                                O     O       O         X                                                                       ",
"                                                  X X                                                                           ",
"                                                                                                                                ",
"                                      O                                                                                         ",
"                                      O           O                                                                             ",
"                                              O                                                                                 ",
"                                              O                                                                                 ",
"                                                                                                                                ",
"                                    O                                                                                           ",
"                                                  O                                                                             "
};
