/* XPM */
static char *_82f18046cc4444eda9fcce0921b7863MsZXox26t3T4Eo49[] = {
/* columns rows colors chars-per-pixel */
"64 64 255 2 ",
"   c #050505",
".  c #090505",
"X  c #040904",
"o  c #090906",
"O  c #04050A",
"+  c #090509",
"@  c #06090B",
"#  c #0A0A0B",
"$  c #150809",
"%  c #07160A",
"&  c #12130E",
"*  c #030412",
"=  c #090815",
"-  c #120D15",
";  c #0C1416",
":  c #151A1A",
">  c #1B1B1C",
",  c #161616",
"<  c #251C19",
"1  c #260F0D",
"2  c #18241C",
"3  c #0B2A15",
"4  c #272C1C",
"5  c #0B0D21",
"6  c #181927",
"7  c #171A34",
"8  c #09152D",
"9  c #192724",
"0  c #19362B",
"q  c #242423",
"w  c #292A2A",
"e  c #27352A",
"r  c #2A2639",
"t  c #293737",
"y  c #383836",
"u  c #373030",
"i  c #291A2D",
"p  c #4E342D",
"a  c #763934",
"s  c #481E1F",
"d  c #2B4937",
"f  c #36433A",
"g  c #2A5135",
"h  c #2E623E",
"j  c #444437",
"k  c #4C5134",
"l  c #754E39",
"z  c #796937",
"x  c #1A2A43",
"c  c #272B47",
"v  c #383B47",
"b  c #363A58",
"n  c #2A324C",
"m  c #2F3768",
"M  c #5D1846",
"N  c #631C4C",
"B  c #453155",
"V  c #692356",
"C  c #6B3647",
"Z  c #54366C",
"A  c #6C2B66",
"S  c #753569",
"D  c #6B3A7A",
"F  c #753977",
"G  c #6F2E6B",
"H  c #384748",
"J  c #334D4C",
"K  c #396248",
"L  c #3D7151",
"P  c #395878",
"I  c #33496F",
"U  c #3A7171",
"Y  c #465A4C",
"T  c #484A57",
"R  c #485857",
"E  c #585557",
"W  c #534B4C",
"Q  c #795657",
"!  c #71514C",
"~  c #486A57",
"^  c #536859",
"/  c #487959",
"(  c #4D6E52",
")  c #6A755A",
"_  c #736D50",
"`  c #494767",
"'  c #5B466C",
"]  c #485967",
"[  c #595B6A",
"{  c #474778",
"}  c #485979",
"|  c #555875",
" . c #564F79",
".. c #664768",
"X. c #774679",
"o. c #6E536E",
"O. c #5A6767",
"+. c #547865",
"@. c #466776",
"#. c #596379",
"$. c #4E736F",
"%. c #6C6C6C",
"&. c #656366",
"*. c #676778",
"=. c #75677A",
"-. c #687677",
";. c #797878",
":. c #727368",
">. c #823831",
",. c #8C4B39",
"<. c #8B6A3C",
"1. c #813F7C",
"2. c #8D594A",
"3. c #986848",
"4. c #977548",
"5. c #906C53",
"6. c #A77657",
"7. c #A4744B",
"8. c #86557C",
"9. c #814C78",
"0. c #866665",
"q. c #906F70",
"w. c #A9796F",
"e. c #548A5D",
"r. c #50895B",
"t. c #758951",
"y. c #568867",
"u. c #578678",
"i. c #5D9677",
"p. c #4F8A6E",
"a. c #63886E",
"s. c #66857A",
"d. c #659575",
"f. c #728D74",
"g. c #8C8C4F",
"h. c #878778",
"j. c #8A937B",
"k. c #948E6B",
"l. c #AF8A71",
"z. c #AB855C",
"x. c #3F3F85",
"c. c #473E85",
"v. c #5A3D85",
"b. c #6C3A83",
"n. c #3A4688",
"m. c #385789",
"M. c #374C92",
"N. c #395497",
"B. c #2A4C82",
"V. c #3C6592",
"C. c #3E62A3",
"Z. c #43438C",
"A. c #49498B",
"S. c #574889",
"D. c #465688",
"F. c #5A5687",
"G. c #474991",
"H. c #584E92",
"J. c #475798",
"K. c #59589A",
"L. c #674988",
"P. c #784788",
"I. c #655588",
"U. c #78558A",
"Y. c #675595",
"T. c #775795",
"R. c #724B91",
"E. c #4B668B",
"W. c #486699",
"Q. c #58669B",
"!. c #577298",
"~. c #50748A",
"^. c #686985",
"/. c #75648A",
"(. c #6B768A",
"). c #757887",
"_. c #686698",
"`. c #7C6795",
"'. c #697699",
"]. c #777998",
"[. c #4E5DA2",
"{. c #705EA2",
"}. c #4769A4",
"|. c #5569A7",
" X c #4C75A9",
".X c #5875A9",
"XX c #5B78B5",
"oX c #6978A7",
"OX c #787DA3",
"+X c #637CB4",
"@X c #696AA9",
"#X c #864986",
"$X c #86578A",
"%X c #885A97",
"&X c #995C94",
"*X c #8E528B",
"=X c #857B88",
"-X c #987789",
";X c #876898",
":X c #986B96",
">X c #847997",
",X c #957294",
"<X c #916A8B",
"1X c #A57897",
"2X c #9879A9",
"3X c #8A70A3",
"4X c #A1679F",
"5X c #3E828B",
"6X c #568495",
"7X c #50878A",
"8X c #688784",
"9X c #778786",
"0X c #789789",
"qX c #668898",
"wX c #79839B",
"eX c #679599",
"rX c #779696",
"tX c #699284",
"yX c #5B93A8",
"uX c #5A84B4",
"iX c #588BA8",
"pX c #6888A9",
"aX c #7987A7",
"sX c #6997AA",
"dX c #7898A9",
"fX c #6488BA",
"gX c #759BB4",
"hX c #708FB6",
"jX c #79A5B8",
"kX c #7DA3AD",
"lX c #77A58D",
"zX c #6784C0",
"xX c #7BABC1",
"cX c #868686",
"vX c #8B8694",
"bX c #899697",
"nX c #969797",
"mX c #8F928F",
"MX c #AB869B",
"NX c #BA8C82",
"BX c #98A895",
"VX c #8CA594",
"CX c #A3AD9B",
"ZX c #888AA6",
"AX c #8695A8",
"SX c #8799B6",
"DX c #9696A7",
"FX c #A793AD",
"GX c #86A3A7",
"HX c #92A6B1",
"JX c #ADB1B2",
"KX c #C59DA7",
"LX c #8FAEC2",
"PX c #A2B1C4",
"IX c #ADC2C5",
/* pixels */
"    o # + o o   o o   o o + @                     +           O X     .       X       +     + O                   +             ",
"                                X     +       o                                         .   + +   O                 +     X     ",
"    w %.-.%.%.%.%.%.%.%.;.y                                 +   X                                   .                       +   ",
"    q nX%.9Xq.;.;.).cXh.DXw                           X               X . o       +         .               +                   ",
"      IXmXJXmX;.cXJX%.nXCX+           +   +   +                       +   o         + X O     .     .                     +     ",
"    # CXJXmX=XCX=.%.JXnXmX.   + +                       .           O O o     + @ O O O O     . O                       X       ",
"    q ).0.;.%.nX%.mXh.;.nXu         +             +         X   O O O *   , ,   + + + 6 - q > +   . +               .           ",
"+   q %.&.%.%.&.%.&.&.O.%.y                           X     + + O O 6 T H E %.r O 7 v H v ` T = - . . <   .             . +     ",
"  X X                                             .   + . + + = = 7 ` | (.9X=.).] | HX| *.[ [ E p u q.! . - $ . + +         +   ",
"+ +   E q     E W     W E             X             + + + $ 6 r b U.F.I.(.dX].^.].ZXZX^.wX`.=Xq.0.l.KXp $ p $ . .   +         X ",
"      > # o   w q     2 w         +       X .   O O + + - u B ' ..`.I.F.(.wXwX'.aXwX].*.DX=X:Xq.w.1XNXp s a 1 $ .     X         ",
"  o       o                             .       = * * - W o...$XU.T.`._.aXaXAX].].].wXvXZX=.-Xq.w.NXw.l a ! 2.p < p & X O +     ",
"    o o             . o o   o           + . * 6 r c i C =.MX8...$XT.%XY.aXSXHXAX(.].^.vXZXo.-Xq.w.NXw.<.a 3.w.p l l 4     X O   ",
"o .   j &     W y     y W X . + + +   O = = 5 ` Z ..Z =.-X-XMXU.$X$X2X3XaXHXHXaX]./.(.].>X=.8.w.w.6.l.3.3.w.2.l z _ j           ",
". .   q & . . q u     < u o .     + + O = 7 Z  .D  .o.q.MXw.1X:X$X%X2X2XwXSXdXwX].].AXAXFX=.o.0.3.6.6.7.3.6.3.z _ _ 4           ",
". . . . . . .     . .     . .   . * * c n Z I.Y.v.X.F $XMX1XMX:X:XU.%XFXOXwX'.wX].=XAXbXHXq.Q 2.6.6.6.7.7.4.<.z t.k X X #       ",
"  . .   . . + . . . . . . . . + O 6 B ` _.` I.R.T.b.P...:X1XKX-X,X<X9.2XZXaXqXwX>X=.].bXDXo.0.2.w.2.6.6.<.<.z z t.4 4 % 2   o o ",
"+ . . > . .   < ,   . < u . . * 5 7 { `._.L.L.L.R.#XP.D 9.-XKXMX<X,XD 2XZXSXaXaX=...;.MX-X! ,.2.6.6.6.3.z z t.t.t.( ) j o   .   ",
"  O   q +     > > . . , < . + = Z _.F.Y.S.L.L.;X#X#X1.1.S 9.1XKXvX<XX.2X3XSXdXwX>X..o.-XQ C >.,.3.6.6.<.z g.t.t.t.k e.f j E <   ",
"  .     . O . . . + .     = = b D.F.F.m S.T.T.P.F 1.1.A A 9.q.1XFX,XP.:X2XZXSX'.vXQ C C ,.a ,.,.3.7.3.z g.t.t.t.k k _ k ) W &   ",
"    +         + . +   * * c ` { Y.G.v.x.L.%XR.b.P.F 1.V S 9.9.:XMX,X<X#X,X3XSXwXvX! C >.>.>.,.6.7.<.g.g.g.t.j.t.j 0.h.q.k 1 p = ",
"      +     .     O O * c { F.A.A.v.H.v.D b.b.*XP.F A V N X.X.X.<X:X:X*X$X3XZXwX[ o.Q 2.>.2.2.3.7.7.g.g.t.g.k._ 5.k.Q p p u q & ",
"                + O 8 c m J.A.A.A.c.v.R.b.1.#X#X#XD S C M S 9.F 1.4X&X&X*X3XZX^.).>X/.0.0.2.3.<.7.7.g.g.t.k.l.5.q.W 1 . .       ",
"          +   + * 8 } D.D.J.J.J.G.A.c.v.b.b.b.b.P.F V N M V b.P.1.8.9.&X4X&X4X3XZX).&.&.Q 2.2.4.<.<.7.z.g.g.g._ Q < < $ . . +   ",
"  +       @ O 6 b _.D.D.[.[.J.[.J.G.G.v.v.b.b.G F F V M N A 1.#X&X9.#X*X&X&X$X' F.(.*.*.%.0.! 2.7.3.4.z.l.5._ Q E j w &         ",
"      X   O O = ^.aXQ.Q.XX@X|.N.J.[.G.G.S.L.b.F A G V N N F %X%X#X&XX.8.*X*X$XV B /.(.).-.&.E ! 5.4.<.4.k.0.k 4 4 X     .       ",
"+         +   T ^.aXoXW.|.XX+XXXM.[.@X[.H.H.T.b.G A A V G F R.3X%X%XP.$X:XU.$XX.B ' *.(.Y ( ) t.5.g._ ! k.u , & o               ",
"        . O O r  ._.aX_.|.XXXXzX[.M.|.XXK._.Y.T.b.Z A A D %X{.T.3XR.U.;X3XU.P.F V Z *.&.a.a.e.t.a.) ) t.f 4 y #         +       ",
"O       O + q 7 r b '.aX@X|..X.XzX}.J.XX|.Y._.Y.H.Z b.R.L.T.{.Y.Y.%XR.U.T.U.L.U.D U./.9Xd.d.e.e.y.y.^ R H e 9 +                 ",
"@       O = T ` ]  .].OXOXoXoX.X+XXXXX|.Q.oX@XS.K.K.Y.{.@XH.H.H.H.H.R.L.L.L.I.U.U.`.o.>XBXd.e.r./ d.K 9 9 9 2   +   O O         ",
"          r *.^./.(.].].].oXoX+X+X+X@X@XoXoXQ.J.H.[.{.Y.K.K.G.v.c.S.S.S.L.L.L.T./.U.;X=.f.a./ L K ~ 9 @ : 2 @ + O O +     +   o ",
"      + O v *./.^.).^.].'.].]._.oXzX|.Q.|.oXoXXX|.|.|.[.G.H.G.A.c.c.A.S.v.R.T.I./.U.U./.%.-.$.U $.0 9 e : X + O +   O O         ",
"X     + O O (.DXZXvX].].aX>XOX3X'.oX+X+XQ.Q..XXXXXzXXX[.J.G.n.G.c.Z.Z.x.v.R.Y.L./.`.].].>X[ ] u.H 9 X X             +           ",
"+ O   O   v wX^.aXSXZXaXwX].].].aXoXOXOXOX'.E. X XXXzX X[.N.G.G.c.M.Z.G.H.G.H.H.I.^.*.^.^.T O.I % %   @         X         X     ",
"+   O O t ~.@.@.P qXdXSXSXZXaXaXaXaXOX]._.'.fX.X X X XXXXX|.J.G.M.c.G.c.A.D.D.Q.^.| ^.).^.*.n 9 @   X                         + ",
"X O @ * ] GX~.6X6X6XdXgXSXgXSXSXSXZXOX].].E.oXuXuX X XC.}.XXXXN.M.G.M.Z.Z.A.m.!.#.] #.(.[ ` * 9 ;   O X         O               ",
"    .   n eXsXsXjXgXsXgXjXjXgXsXSXSXSXSX].!..XXXzXuX X X.X}..XfX|.M.n.n.n.A.D.!.U @.s.~ R t O O : O                         +   ",
"X       y dXrXkXkXjXxXjXjXxXjXjXgXgXSXgXAX'.'.!..XuXfXfXiXfX XW.XXXX|.N.n.Z.m.E.~.u.d.R H : = # 6 @                       X     ",
"      O O J HXHXSXGXSXgXjXjXjXjXjXjXhXpXhXsX'.!.pX.X.XsXpXhXsXiX XV.}. X[.n.P m.U tX~ 2 9 : : : ; +               + X           ",
"    +   = t T ).AXHXPXPXHXkXjXkXsXyXsXiX~.qXpXqXpXpXpXpXhXsXsXpXiXiXiX X}.m.P P $.7X9 9 e @ O     +                 O           ",
"          q v [ ).).>XFXJXIXkXdXjXyXyXsX6X6XqXdXdXdXAXkXdXeXkX7XV.yXyXyXyX5XU @.eXu.J t t 0 , : : q 2 : o     X           +     ",
"        6 w T [ O.&.=.=.9XHXIXGXlXsXeXeXeXrXBXHXHXbX(.u.8Xu.u.$.p.7X5X5X5X5X7XeXU @.] : @ ; 6 = X   @ @ : : , :   X     X       ",
"    X   H y O.mXVXmXnXcX;.9XBXCXBXlXtXs.0XBXCXCXj.h.9X+.$.d ~ L / 5X5XU U yXsXP I { ` 5 O O ; : @         X @       +           ",
"        ; [ ~ -.mXVXcXcXq.cXnXBXCXCXBXBXBXBXj.q.h.:.~ ~ +.+.K K i.i.p.eXyX6XP I n.m { 6 O X   O     X         X                 ",
"        w ^ ~ tX0X0Xf.;.=Xh.h.j.j.j.mXk.h.k.f.k.j.a.y.p.h L L L p.i.eX5XU I B.M.n.{  .v O + O +           X   O     +   + X     ",
"        R bX+.8XlXlX9X-.cX-X&.W ( ) q.h.h.:.j.:.a.f.d.p.p.e.i.i.i.i.U U m.B.N.B.n.n.F.Z -   O   X             X                 ",
"        e 0XbXrXVX0XrX0X).vX=.! _ :.k.cX;.&.f 2 0 h 3 g y.i.y.lXp.0 n V.V.N.N.N.n.x.{ ` r - +     X                   X         ",
"        9 -.s.u.0XGXrXDXmXmXvXnXh.h.f.&.y ; X 9 % % h y.e.r.y.K L U I B.V.C.N.B.M.M.n.m c i = .         @                   +   ",
"        % O.s.-.-.s.0XbXvXDXmX=XmXcX;.O.T H J 3 0 / e.r./ a.d   9 J P ~.B.C.C.C.M.M.n.{ B 5 O           @                     + ",
"        : f O.8X-.8X).wX9XmX;.%.).).O.8X~ J +./ e.e.L r.d.g % 2 9 7 0 m.W.C.C.}.N.N.n.H. .7 O                                   ",
"        2 ^ ^ -.8X9X).-.=X=XE W vX&.6 t 9 3 r.r.r.e.y.K % % q ,   O 8 V.m.B.C.C.N.N.[.n. .c O O   X                 X           ",
"        X ^ bXf.f.T O.;.T T T o.).O.R 2 ~ d.r./ i.( 3 % e < .   + * n V.I I C.C.M.N.J.n.D.b r : +     +             +         X ",
"          2 ^ f.h.Y f R B T %.&.H #.+.+.a.y.e.e.d % t y &       O * I m.m m V.}.M.N.N.G.A.b - :                         +       ",
"            X 2 ^ VXf.t Y [ T T d ~ +.r./ a.K 3 3 e >   X X     O 5 @.P m 8 x  X}.J.M.n.{ n * O               O X +             ",
"    +   o     % 2 Y lX+.d X @ J K / +.r.+.Y 2 ; % 2 @ w w     @ * x E.m 7 * 8 } +XW.W.m.I 5 O @                                 ",
"      +     X X   % +.f.( J 0 d y.i.( d d 2 @ , w u y 9     X O * J } x 5 O O n '.W.F.I 7 * O                               + X ",
"X   +   X       X X % +.a.y.y.r./ h Y T f q 9 : @         O O * 8 E.I 8 = @ O 8 | x x 5 O @ O                       +           ",
"                  X X X 4 ( h / g X q w , - O             O O 5 ] F.8 r O O o 6 ; * @ O O O +   X       X +     +               ",
"                      % % e ( e d : +   O O       O O +   O = 7 E.m c 6   . , ,   O +         O       +               X         ",
"            X         X 9 Y e   X X   o X @ O O     O + + O * H #.H v O O o 6 + O +           O   +                         @   ",
"        O X       X   # 2 &   X                   . + O O O = ] ] 8 = +   + ,                 +         X   +   X   +           ",
"+         O     X   @   X   X         +             O + = O J ` : O O           X       X                                       ",
"                X                     .     +         O   9 v 9 : =     .       X   O O   +                   +               X ",
"  +   X     +         X           O   O   .   +       O   : 5 * ; @     .   .       O +             @                         + "
};
